# AST/ASF file generated using VICON BodyLanguage
# -----------------------------------------------
:version 1.10
:name VICON
:units
  mass 1.0
  length 0.45
  angle deg
:documentation
   .ast/.asf automatically generated from VICON data using
   VICON BodyBuilder and BodyLanguage model FoxedUp or BRILLIANT.MOD
:root
   order TX TY TZ RX RY RZ
   axis XYZ
   position 0 0 0  
   orientation 0 0 0 
:bonedata
  begin
     id 1 
     name lhipjoint
     direction 0.645422 -0.672597 0.361999 
     length 2.39934 
     axis 0 0 0  XYZ
  end
  begin
     id 2 
     name lfemur
     direction 0.34202 -0.939693 0  
     length 6.58112  
     axis 0 0 20  XYZ
    dof rx ry rz
    limits (-160.0 20.0)
           (-70.0 70.0)
           (-60.0 70.0)
  end
  begin
     id 3 
     name ltibia
     direction 0.34202 -0.939693 0   
     length 7.02673   
     axis 0 0 20   XYZ
    dof rx
    limits (-10.0 170.0)
  end
  begin
     id 4 
     name lfoot
     direction 0.0835106 -0.229444 0.969733   
     length 2.08772   
     axis -90 7.62852e-016 20   XYZ
    dof rx rz
    limits (-45.0 90.0)
           (-70.0 20.0)
  end
  begin
     id 5 
     name ltoes
     direction 1.5358e-011 -4.21925e-011 1   
     length 1.04844   
     axis -90 7.62852e-016 20   XYZ
    dof rx
    limits (-90.0 20.0)
  end
  begin
     id 6 
     name rhipjoint
     direction -0.644959 -0.672941 0.362185   
     length 2.39812  
     axis 0 0 0  XYZ 
  end
  begin
     id 7 
     name rfemur
     direction -0.34202 -0.939693 0   
     length 6.67015   
     axis 0 0 -20   XYZ
    dof rx ry rz
    limits (-160.0 20.0)
           (-70.0 70.0)
           (-70.0 60.0)
  end
  begin
     id 8 
     name rtibia
     direction -0.34202 -0.939693 0   
     length 7.35735   
     axis 0 0 -20   XYZ
    dof rx
    limits (-10.0 170.0)
 end
 begin
     id 9 
     name rfoot
     direction -0.0670769 -0.184292 0.98058   
     length 2.25469  
     axis -90 -7.62852e-016 -20   XYZ
    dof rx rz
    limits (-45.0 90.0)
           (-20.0 70.0)
  end
  begin
     id 10 
     name rtoes
     direction -1.53575e-011 -4.21908e-011 1   
     length 1.13399   
     axis -90 -7.62852e-016 -20   XYZ
    dof rx
    limits (-90.0 20.0)
  end
  begin
     id 11 
     name lowerback
     direction -0.0188328 0.993434 -0.112847   
     length 2.27656   
     axis 0 0 0   XYZ
    dof rx ry rz
    limits (-20.0 45.0)
           (-30.0 30.0)
           (-30.0 30.0)
  end
  begin
     id 12 
     name upperback
     direction 0.00983139 0.998968 -0.04435   
     length 2.28631   
     axis 0 0 0   XYZ
    dof rx ry rz
    limits (-20.0 45.0)
           (-30.0 30.0)
           (-30.0 30.0)
  end
  begin
     id 13 
     name thorax
     direction 0.0177718 0.999807 0.00833073   
     length 2.30999   
     axis 0 0 0   XYZ
    dof rx ry rz
    limits (-20.0 45.0)
           (-30.0 30.0)
           (-30.0 30.0)
  end
  begin
     id 14 
     name lowerneck
     direction -0.0835025 0.993181 0.0813558   
     length 1.39447   
     axis 0 0 0   XYZ
    dof rx ry rz
    limits (-20.0 45.0)
           (-30.0 30.0)
           (-30.0 30.0)
  end
  begin
     id 15 
     name upperneck
     direction 0.210059 0.976535 0.0474817   
     length 1.39882   
     axis 0 0 0   XYZ
    dof rx ry rz
    limits (-20.0 45.0)
           (-30.0 30.0)
           (-30.0 30.0)
  end
  begin
     id 16
     name head
     direction 0.0780891 0.996944 -0.00207154  
     length 1.41828  
     axis 0 0 0   XYZ
    dof rx ry rz
    limits (-20.0 45.0)
           (-30.0 30.0)
           (-30.0 30.0)
  end
  begin
     id 17 
     name lclavicle
     direction 0.982414 0.166355 -0.0847829  
     length 3.57922  
     axis 0 0 0   XYZ
    dof ry rz
    limits (-20.0 10.0)
           (0.0 20.0)
  end
  begin
     id 18 
     name lhumerus
     direction 1 -4.48975e-011 5.47647e-028   
     length 4.76405   
     axis -180 -30 -90   XYZ
    dof rx ry rz
    limits (-60.0 90.0)
           (-90.0 90.0)
           (-90.0 90.0)
  end
  begin
     id 19
     name lradius
     direction 1 -4.48949e-011 -8.32142e-027   
     length 3.13759   
     axis -180 -30 -90   XYZ
    dof rx
    limits (-10.0 170.0)
  end
  begin
     id 20
     name lwrist
     direction 1 -4.48978e-011 -1.32705e-026   
     length 1.56879   
     axis 9.60836e-015 90 90   XYZ
    dof ry
    limits (-180.0 0.0)
 end
  begin
     id 21 
     name lhand
     direction 1 -4.48975e-011 -2.65409e-026   
     length 0.732262   
     axis 1.69354e-014 90 90   XYZ
    dof rx rz
    limits (-90.0 90.0)
           (-45.0 45.0)
  end
  begin
     id 22 
     name lfingers
     direction 1 -4.48923e-011 -5.30819e-026   
     length 0.590368   
     axis 3.38708e-014 90 90   XYZ
    dof rx
    limits (0.0 90.0)
  end
  begin
     id 23
     name lthumb
     direction 0.707107 -6.34914e-011 0.707107   
     length 0.847654   
     axis -90 45 2.85299e-015   XYZ
    dof rx rz
    limits (-45.0 45.0)
           (-45.0 45.0)
  end
  begin
     id 24 
     name rclavicle
     direction -0.963658 0.245183 -0.106063   
     length 3.43472  
     axis 0 0 0   XYZ 
    dof ry rz
    limits (-10.0 20.0)
           (-20.0 0.0)
  end
  begin
     id 25 
     name rhumerus
     direction -1 -4.48963e-011 -1.64784e-027  
     length 5.10161   
     axis -180 30 90   XYZ
    dof rx ry rz
    limits (-90.0 60.0)
           (-90.0 90.0)
           (-90.0 90.0)
  end
  begin
     id 26 
     name rradius
     direction -1 -4.48969e-011 -2.87943e-027   
     length 3.23267   
     axis -180 30 90   XYZ
    dof rx
    limits (-10.0 170.0)
  end
  begin
     id 27 
     name rwrist
     direction -1 -4.48982e-011 -1.32705e-026   
     length 1.61633   
     axis 9.60836e-015 -90 -90   XYZ
    dof ry
    limits (-180.0 0.0)
  end
  begin
     id 28
     name rhand
     direction -1 -4.48963e-011 -2.65409e-026   
     length 0.702   
     axis 1.69354e-014 -90 -90   XYZ
    dof rx rz
    limits (-90.0 90.0)
           (-45.0 45.0)
  end
  begin
     id 29
     name rfingers
     direction -1 -4.48934e-011 -5.30819e-026   
     length 0.565971   
     axis 3.38708e-014 -90 -90   XYZ
    dof rx
    limits (0.0 90.0)
  end
  begin
     id 30
     name rthumb
     direction -0.707107 -6.34908e-011 0.707107   
     length 0.812624   
     axis -90 -45 -2.85299e-015   XYZ
    dof rx rz
    limits (-45.0 45.0)
           (-45.0 45.0)
  end
:hierarchy
  begin
    root lhipjoint rhipjoint lowerback
    lhipjoint lfemur
    lfemur ltibia
    ltibia lfoot
    lfoot ltoes
    rhipjoint rfemur
    rfemur rtibia
    rtibia rfoot
    rfoot rtoes
    lowerback upperback
    upperback thorax
    thorax lowerneck lclavicle rclavicle
    lowerneck upperneck
    upperneck head
    lclavicle lhumerus
    lhumerus lradius
    lradius lwrist
    lwrist lhand lthumb
    lhand lfingers
    rclavicle rhumerus
    rhumerus rradius
    rradius rwrist
    rwrist rhand rthumb
    rhand rfingers
  end

#!OML:ASF \\sashay\E\basketball\basketball\Project 1\Capture day 1\Session 1\Subject.ASF
:FULLY-SPECIFIED
:DEGREES
132
root 22.8557 12.87 1.08032 -173.411 -48.8263 186.034
lowerback 28.8034 3.57102 3.1476
upperback 12.8386 3.22099 0.181261
thorax -1.2238 0.86806 -2.49318
lowerneck -12.4227 6.22909 -10.4116
upperneck -20.6058 8.43259 2.9664
head -4.89424 4.15024 2.62535
rclavicle -9.30312e-014 2.69353e-014
rhumerus 10.5774 14.6534 -82.8232
rradius 74.7224
rwrist -12.0195
rhand -28.9694 41.2723
rfingers 7.12502
rthumb -2.32218 11.3052
lclavicle -9.30312e-014 2.69353e-014
lhumerus -35.3839 -11.8473 79.0282
lradius 63.1533
lwrist 25.6612
lhand -14.9291 15.5993
lfingers 7.12502
lthumb 11.2332 45.2786
rfemur -8.00666 -23.6907 -6.50334
rtibia 44.3243
rfoot -25.1415 -16.8608
rtoes -57.243
lfemur -75.4817 35.6785 -22.2135
ltibia 89.4618
lfoot -15.8955 5.1784
ltoes -11.5709
133
root 22.5633 12.8473 1.02056 -173.813 -49.752 186.493
lowerback 28.4822 3.73489 2.31514
upperback 12.6632 3.29316 0.220896
thorax -1.34199 0.891227 -1.98967
lowerneck -11.5934 5.59686 -10.8028
upperneck -20.9541 7.73633 4.36775
head -5.13487 3.77716 3.12795
rclavicle 1.92324e-014 -1.48095e-014
rhumerus 9.69102 13.675 -82.0453
rradius 76.932
rwrist -12.1097
rhand -29.6782 42.4672
rfingers 7.12502
rthumb -3.00673 12.5086
lclavicle 1.92324e-014 -1.48095e-014
lhumerus -34.7066 -12.9383 77.2796
lradius 64.1679
lwrist 25.3217
lhand -15.2339 15.9961
lfingers 7.12502
lthumb 10.9392 45.6912
rfemur -4.35403 -21.4802 -6.55624
rtibia 40.2928
rfoot -23.9444 -17.6237
rtoes -57.2341
lfemur -75.2232 35.7345 -21.9025
ltibia 90.0036
lfoot -14.7425 3.26014
ltoes -11.6999
134
root 22.2444 12.8658 0.956269 -174.151 -50.5964 186.915
lowerback 28.1063 3.96438 1.51684
upperback 12.4495 3.464 0.140048
thorax -1.46088 0.974159 -1.66324
lowerneck -11.031 5.18865 -11.3451
upperneck -20.7347 7.43502 5.871
head -5.18495 3.61835 3.6919
rclavicle 1.4766e-014 2.3879e-014
rhumerus 8.43076 12.1162 -81.3064
rradius 79.0577
rwrist -12.5077
rhand -30.319 43.6565
rfingers 7.12502
rthumb -3.62552 13.7075
lclavicle 1.4766e-014 2.3879e-014
lhumerus -33.7128 -14.1936 75.2744
lradius 65.2248
lwrist 25.0115
lhand -15.9257 16.2081
lfingers 7.12502
lthumb 10.2718 45.9372
rfemur -0.612653 -18.5783 -6.18064
rtibia 35.8312
rfoot -22.3398 -18.7272
rtoes -57.1375
lfemur -74.348 35.6553 -21.605
ltibia 90.6104
lfoot -14.273 1.56863
ltoes -11.3659
135
root 21.9375 12.8798 0.895019 -173.816 -51.7953 186.911
lowerback 27.6104 4.12302 0.621564
upperback 12.0603 3.56564 -0.112712
thorax -1.71746 1.04404 -1.44859
lowerneck -9.49869 4.59872 -11.1551
upperneck -21.4526 6.68567 7.05464
head -5.59333 3.16284 4.03771
rclavicle -4.62174e-014 4.99943e-014
rhumerus 6.75569 9.88491 -80.7101
rradius 81.0509
rwrist -13.0843
rhand -30.5878 44.4911
rfingers 7.12502
rthumb -3.88505 14.5467
lclavicle -4.62174e-014 4.99943e-014
lhumerus -32.2749 -15.4899 72.8923
lradius 66.3083
lwrist 24.9039
lhand -16.5153 16.5561
lfingers 7.12502
lthumb 9.703 46.3126
rfemur 2.87743 -15.7042 -5.6024
rtibia 31.328
rfoot -20.125 -20.5113
rtoes -57.1493
lfemur -73.9044 35.2928 -22.0107
ltibia 91.5046
lfoot -14.8966 0.445207
ltoes -13.3601
136
root 21.6088 12.8895 0.836531 -173.236 -52.9748 186.692
lowerback 26.985 4.25894 -0.259653
upperback 11.6267 3.64946 -0.477142
thorax -1.94882 1.11551 -1.3528
lowerneck -9.16789 4.10526 -11.4209
upperneck -20.7204 6.32913 8.97994
head -5.41376 2.93322 4.71092
rclavicle -1.5704e-014 3.55825e-014
rhumerus 4.80345 7.2471 -80.1208
rradius 82.7798
rwrist -13.7633
rhand -30.6519 44.947
rfingers 7.12502
rthumb -3.94696 15.0038
lclavicle -1.5704e-014 3.55825e-014
lhumerus -30.4242 -16.7604 70.2601
lradius 67.4144
lwrist 25.2818
lhand -17.0381 17.1966
lfingers 7.12502
lthumb 9.19854 46.976
rfemur 6.31128 -13.087 -5.02966
rtibia 26.834
rfoot -17.0207 -22.8556
rtoes -57.505
lfemur -73.1653 34.768 -22.4372
ltibia 92.4758
lfoot -16.402 0.347021
ltoes -21.7437
137
root 21.2674 12.8955 0.786849 -172.553 -54.1737 186.457
lowerback 26.2438 4.34594 -0.999579
upperback 11.222 3.7002 -0.920187
thorax -2.07135 1.17742 -1.40537
lowerneck -8.54059 3.54496 -11.7082
upperneck -19.9921 5.84963 10.9802
head -5.26043 2.63771 5.4136
rclavicle -1.68967e-014 -8.94531e-015
rhumerus 2.68497 4.19812 -79.4829
rradius 84.357
rwrist -14.5894
rhand -30.6072 45.4362
rfingers 7.12502
rthumb -3.9038 15.4922
lclavicle -1.68967e-014 -8.94531e-015
lhumerus -28.0817 -17.9091 67.3527
lradius 68.6187
lwrist 25.8183
lhand -17.5892 17.8787
lfingers 7.12502
lthumb 8.66683 47.6807
rfemur 9.46587 -11.0292 -4.43191
rtibia 22.8318
rfoot -13.7352 -25.1669
rtoes -57.6327
lfemur -72.204 34.0224 -22.6916
ltibia 93.2168
lfoot -18.0357 0.21315
ltoes -28.0348
138
root 20.9234 12.9137 0.746035 -171.88 -55.2291 186.339
lowerback 25.562 4.44986 -1.74664
upperback 10.8064 3.7646 -1.35399
thorax -2.22759 1.24177 -1.44869
lowerneck -8.06232 2.98926 -12.0828
upperneck -19.4614 5.37481 13.1591
head -5.13866 2.32653 6.20614
rclavicle -2.10712e-014 -1.35174e-014
rhumerus 0.290598 1.03606 -78.6868
rradius 85.9177
rwrist -15.5483
rhand -30.5228 45.8657
rfingers 7.12502
rthumb -3.82235 15.9203
lclavicle -2.10712e-014 -1.35174e-014
lhumerus -25.386 -18.4635 64.3185
lradius 69.8345
lwrist 26.1392
lhand -18.1233 18.28
lfingers 7.12502
lthumb 8.15138 48.1028
rfemur 12.0954 -9.36001 -3.70144
rtibia 19.4152
rfoot -11.7582 -27.219
rtoes -56.8003
lfemur -70.8884 32.8183 -22.5691
ltibia 93.5038
lfoot -19.802 -0.375384
ltoes -30.3816
139
root 20.577 12.9316 0.714101 -171.394 -56.1674 186.526
lowerback 24.919 4.54784 -2.42526
upperback 10.3901 3.8395 -1.66254
thorax -2.40165 1.30798 -1.39876
lowerneck -8.25957 2.55246 -12.0936
upperneck -18.7464 4.96689 14.7352
head -4.8337 2.07159 6.73989
rclavicle -1.1609e-013 6.32135e-014
rhumerus -2.3538 -1.99159 -77.4805
rradius 87.4472
rwrist -16.737
rhand -30.6572 46.0844
rfingers 7.12502
rthumb -3.9521 16.1413
lclavicle -1.1609e-013 6.32135e-014
lhumerus -22.4415 -18.3699 61.4549
lradius 70.9562
lwrist 26.2241
lhand -18.8012 18.3808
lfingers 7.12502
lthumb 7.49706 48.2279
rfemur 14.0636 -8.11366 -2.83586
rtibia 16.7757
rfoot -11.9194 -29.2842
rtoes -54.6836
lfemur -69.656 31.8032 -22.4355
ltibia 93.504
lfoot -21.4696 -1.03399
ltoes -31.3948
140
root 20.228 12.9565 0.693875 -171.099 -57.261 187.046
lowerback 24.2911 4.55952 -2.80349
upperback 10.0483 3.86943 -1.87232
thorax -2.48391 1.35426 -1.39722
lowerneck -8.15711 2.11089 -12.1064
upperneck -18.7593 4.51117 16.0889
head -4.78831 1.76654 7.21849
rclavicle -7.79236e-014 7.83212e-014
rhumerus -5.05913 -5.10427 -75.8878
rradius 88.7782
rwrist -18.1001
rhand -30.9827 46.5894
rfingers 7.12502
rthumb -4.26647 16.6524
lclavicle -7.79236e-014 7.83212e-014
lhumerus -19.1549 -17.7898 58.8026
lradius 72.0736
lwrist 26.0578
lhand -19.6 18.5528
lfingers 7.12502
lthumb 6.72597 48.426
rfemur 15.3855 -7.26622 -1.78264
rtibia 15.0675
rfoot -15.3542 -30.8125
rtoes -49.0152
lfemur -68.6562 30.714 -22.3314
ltibia 93.439
lfoot -22.8692 -1.14312
ltoes -33.3084
141
root 19.8703 13.0036 0.684657 -171.036 -58.3925 187.818
lowerback 23.8428 4.52345 -2.96323
upperback 9.74808 3.87032 -2.00271
thorax -2.59589 1.38488 -1.4333
lowerneck -7.66069 1.70887 -11.9981
upperneck -19.5413 4.07843 17.1513
head -5.0402 1.42588 7.60331
rclavicle -9.93923e-015 6.75868e-014
rhumerus -7.9234 -8.22745 -73.9206
rradius 89.7753
rwrist -19.4818
rhand -31.2691 47.4253
rfingers 7.12502
rthumb -4.54299 17.494
lclavicle -9.93923e-015 6.75868e-014
lhumerus -15.7945 -16.7882 56.4469
lradius 73.2107
lwrist 25.7812
lhand -20.5483 18.7327
lfingers 7.12502
lthumb 5.81042 48.6331
rfemur 15.9127 -6.67203 -0.636554
rtibia 14.5704
rfoot -18.5103 -32.4296
rtoes -39.0528
lfemur -67.6621 29.4769 -22.1512
ltibia 93.362
lfoot -23.9262 -1.18304
ltoes -34.8001
142
root 19.4998 13.066 0.681784 -170.948 -59.3541 188.516
lowerback 23.4628 4.51995 -3.1628
upperback 9.52922 3.88666 -2.09859
thorax -2.65536 1.41357 -1.41476
lowerneck -7.85306 1.30863 -11.7878
upperneck -19.7584 3.6147 17.904
head -4.99256 1.12408 7.85035
rclavicle 2.70347e-014 9.10434e-014
rhumerus -10.9675 -11.1836 -71.5123
rradius 90.4654
rwrist -20.7091
rhand -31.6901 48.0887
rfingers 7.12502
rthumb -4.9495 18.1665
lclavicle 2.70347e-014 9.10434e-014
lhumerus -12.3625 -15.4813 54.3448
lradius 74.1919
lwrist 25.6979
lhand -22.0242 18.3667
lfingers 7.12502
lthumb 4.38537 48.3013
rfemur 15.5051 -6.59121 0.128387
rtibia 15.457
rfoot -17.103 -35.2726
rtoes -31.0946
lfemur -66.5829 28.3005 -22.1122
ltibia 93.2021
lfoot -24.6439 -1.2778
ltoes -34.9992
143
root 19.1291 13.1311 0.682272 -170.843 -60.3104 189.2
lowerback 23.0824 4.5103 -3.42477
upperback 9.42901 3.87716 -2.07506
thorax -2.59676 1.41865 -1.22257
lowerneck -8.02015 0.925657 -11.8178
upperneck -20.6671 3.20405 18.5723
head -5.17394 0.827628 8.14434
rclavicle -4.85035e-014 6.67916e-014
rhumerus -13.9015 -13.9512 -68.7302
rradius 90.6985
rwrist -21.5641
rhand -32.3358 48.6565
rfingers 7.12502
rthumb -5.57299 18.7498
lclavicle -4.85035e-014 6.67916e-014
lhumerus -8.84279 -13.7769 52.5519
lradius 75.047
lwrist 25.5578
lhand -23.4433 17.7624
lfingers 7.12502
lthumb 3.01504 47.7208
rfemur 14.2604 -6.98574 0.630747
rtibia 17.7221
rfoot -13.6885 -37.2148
rtoes -24.5767
lfemur -65.5707 27.1881 -22.1709
ltibia 93.0462
lfoot -25.2442 -1.16605
ltoes -36.0099
144
root 18.7699 13.1934 0.689504 -171.099 -61.3976 190.169
lowerback 22.9579 4.39846 -3.66751
upperback 9.39293 3.7281 -1.83501
thorax -2.60635 1.34635 -0.786466
lowerneck -8.51375 0.650088 -12.0396
upperneck -21.2226 2.92366 19.0237
head -5.21503 0.653617 8.3825
rclavicle 0 1.20464e-013
rhumerus -16.6064 -16.2823 -65.682
rradius 90.4395
rwrist -22.0709
rhand -32.8544 49.2882
rfingers 7.12502
rthumb -6.07365 19.3953
lclavicle 0 1.20464e-013
lhumerus -5.81883 -11.5494 51.2732
lradius 76.0745
lwrist 24.9013
lhand -24.285 17.8138
lfingers 7.12502
lthumb 2.20213 47.7821
rfemur 12.5796 -7.73424 1.24254
rtibia 20.8938
rfoot -5.06843 -38.3965
rtoes -26.2226
lfemur -64.5831 25.9759 -21.9739
ltibia 92.9504
lfoot -25.7039 -0.983253
ltoes -37.7319
145
root 18.4239 13.2455 0.702262 -171.572 -62.468 191.245
lowerback 23.1177 4.2029 -3.94713
upperback 9.35751 3.44151 -1.52419
thorax -2.75569 1.20192 -0.233095
lowerneck -9.54536 0.451461 -12.0537
upperneck -21.3614 2.71853 19.3934
head -5.04667 0.539542 8.5321
rclavicle 1.19271e-014 -8.0309e-014
rhumerus -19.1736 -18.0894 -62.5563
rradius 89.8352
rwrist -22.2894
rhand -33.2825 49.708
rfingers 7.12502
rthumb -6.48691 19.8273
lclavicle 1.19271e-014 -8.0309e-014
lhumerus -3.49704 -8.97141 50.2415
lradius 77.414
lwrist 24.2023
lhand -24.8084 18.2262
lfingers 7.12502
lthumb 1.69657 48.1992
rfemur 10.4602 -9.06964 1.77584
rtibia 24.9944
rfoot 3.00009 -33.6742
rtoes -33.3553
lfemur -63.5931 24.7201 -21.5973
ltibia 92.8552
lfoot -25.9348 -1.08783
ltoes -38.3129
146
root 18.0792 13.3049 0.714154 -171.978 -63.4757 192.385
lowerback 23.1886 3.9394 -4.19195
upperback 9.29293 3.08519 -1.22693
thorax -2.88114 1.02809 0.309512
lowerneck -10.575 0.315781 -12.0034
upperneck -21.6185 2.57554 19.602
head -4.92968 0.451821 8.61697
rclavicle -2.94201e-014 -4.05521e-014
rhumerus -21.499 -19.6448 -59.5556
rradius 88.9203
rwrist -22.1225
rhand -33.7469 49.5914
rfingers 7.12502
rthumb -6.93527 19.725
lclavicle -2.94201e-014 -4.05521e-014
lhumerus -1.57572 -6.38517 49.1723
lradius 78.9433
lwrist 24.1443
lhand -25.4722 18.6882
lfingers 7.12502
lthumb 1.05548 48.6653
rfemur 7.9504 -10.868 2.27404
rtibia 29.5648
rfoot 7.5703 -27.023
rtoes -40.5715
lfemur -62.6587 23.5113 -21.2269
ltibia 92.5889
lfoot -25.937 -1.56502
ltoes -37.7928
